<svg width="2525" height="2188" viewBox="0 0 2525 2188" fill="none" xmlns="http://www.w3.org/2000/svg">
<rect width="2525" height="2188" fill="white"/>
<path d="M987.5 536.5C993.5 529.5 999.5 526 1005.5 526C1011.5 526 1017 528.5 1022 533.5C1028 538.5 1031 545 1031 553C1031 560 1026 570 1016 583C967 655 919.5 752.5 873.5 875.5C827.5 998.5 804.5 1105 804.5 1195C804.5 1284 820 1349 851 1390C882 1431 917 1451.5 956 1451.5C996 1451.5 1037 1431 1079 1390C1121 1349 1161 1296 1199 1231C1266 1113 1316.5 1014 1350.5 934C1362.5 908 1372 895 1379 895C1386 895 1392 897.5 1397 902.5C1403 907.5 1406 912 1406 916C1406 920 1403 940 1397 976C1392 1012 1389.5 1056.5 1389.5 1109.5C1389.5 1346.5 1459.5 1465 1599.5 1465C1644.5 1465 1685.5 1452 1722.5 1426C1759.5 1399 1788.5 1366 1809.5 1327C1853.5 1244 1875.5 1172 1875.5 1111C1875.5 1049 1862 983.5 1835 914.5C1809 845.5 1769.5 783.5 1716.5 728.5C1664.5 672.5 1607.5 643.5 1545.5 641.5C1527.5 640.5 1518.5 633.5 1518.5 620.5C1518.5 599.5 1536.5 575 1572.5 547C1608.5 518 1648.5 503.5 1692.5 503.5C1765.5 503.5 1829.5 541 1884.5 616C1940.5 690 1968.5 797.5 1968.5 938.5C1968.5 1034.5 1952 1129 1919 1222C1886 1314 1844 1393 1793 1459C1743 1524 1687.5 1576.5 1626.5 1616.5C1566.5 1657.5 1510 1678 1457 1678C1422 1678 1392 1668.5 1367 1649.5C1342 1631.5 1323 1608 1310 1579C1288 1525 1277 1468 1277 1408C1277 1355 1281 1308.5 1289 1268.5C1297 1228.5 1303 1199 1307 1180C1311 1160 1313 1148.5 1313 1145.5C1313 1141.5 1312.5 1139.5 1311.5 1139.5C1305.5 1139.5 1296 1153.5 1283 1181.5C1270 1208.5 1258.5 1231.5 1248.5 1250.5C1185.5 1369.5 1107.5 1479 1014.5 1579C948.5 1650 881 1685.5 812 1685.5C777 1685.5 740 1669 701 1636C680 1618 663 1591 650 1555C637 1518 630.5 1471.5 630.5 1415.5C630.5 1359.5 644.5 1284 672.5 1189C701.5 1094 742 992 794 883C867 728 931.5 612.5 987.5 536.5Z" fill="black"/>
</svg>
